<svg xmlns="http://www.w3.org/2000/svg" width="36" height="36" viewBox="0 0 14 18"><path fill="#C9BCDC" d="M9.283 10.643c-.672.799-9.214.67-1.214.67l.465-1.12 1.187-.94s.233.592-.438 1.39m-1.44 5.534-.51-.845-.333.514-.334-.514-.51.845s-.717-.898-.717-1.878c0-.98.18-1.793.18-1.793l.488 1.481.387-.29s.111.355.506.872c.394-.517.505-.871.505-.871l.387.29.49-1.482s.179.813.179 1.793-.718 1.878-.718 1.878M4.15 9.253l1.274.94.499 1.303S4.15 11.213 4.15 9.253M9.494-.001l-.471.514.171 3.819s1.038.765 1.038 1.708c0 .69-.464 1.183-.956 1.183-.708 0-1.25-.75-.982-1.668L7 3.375l-1.294 2.18c.268.918-.274 1.668-.982 1.668-.492 0-.956-.492-.956-1.183 0-.943 1.038-1.708 1.038-1.708L4.977.513 4.507 0C4.506 3.449 0 6.67 0 10.244c0 2.265 2.26 3.7 2.26 5.973 0 0 .405-.574.405-1.972 0-1.399-.515-1.505-.515-2.372s.777-1.702.777-1.702c0 1.495 1.683 2.746 1.683 3.457 0 .984.875 3.87 2.39 3.87 1.515 0 2.39-2.886 2.39-3.87 0-.711 1.683-1.962 1.683-3.457 0 0 .776.835.776 1.702s-.514.973-.514 2.372c0 1.398.404 1.972.404 1.972 0-2.273 2.261-3.708 2.261-5.973C14 6.67 9.494 3.45 9.494 0"/></svg>