<svg xmlns="http://www.w3.org/2000/svg" width="36" height="36" viewBox="0 0 14 18"><path fill="#ADD2ED" d="M3.84 1s4.384 1.668 4.384 5.624c0 3.835-6.285 3.648-6.285 8.345 0 .998.696 2.371.696 2.371S0 15.715 0 13.448c0-3.873 4.956-2.33 4.956-8.962C4.956 2.019 3.839 1 3.839 1m8.609 7.788c0 1.43-1.106 3.77-3.93 3.77-4.209 0-4.792 1.887-4.792 1.887-.74-2.686 6.812-4.456 6.812-8.471 0-1.834-.902-2.842-.902-2.842s2.812 1.945 2.812 5.656M4.55 15.757c.588-1.677 1.842-2.04 1.842-2.04s1.547.521 2.226.521c3.267 0 5.228-3.94 5.228-3.94s1.025 3.576-2.294 7.152c0 0-1.949-2.289-4.409-2.289-1.491 0-2.593.596-2.593.596"/></svg>