<svg xmlns="http://www.w3.org/2000/svg" width="24" height="24" fill="#61c905" viewBox="0 0 24 24"><path d="M9.753 9.372c.725 3.154 3.863 5.885 3.863 5.885l-1.298 4.678s-.038-1.069-1.056-2.868-1.652-2.704-3.018-4.327C6.878 11.118 5.8 10.578 5.8 10.578s-.498-1.675-.272-2.654c.226-.979 1.418-2.838 1.418-2.838l.755 1.81s.407-1.5 1.177-2.595c1.188-1.139 1.886-1.48 2.666-1.86.279-.137.569-.279.895-.464 1.388-.49 2.475-.362 2.475-.362l-.966 2.535 1.268.151 1.75 1.118 1.66 2.354.302 2.988-2.203-.876s.4 2.136-1.509 2.656c-2.452.49-4.089-2.815-3.591-3.17.709-.414 1.84-.15 1.84-.15s.595-2.332-1.66-1.992c-.307.27-.52.437-.69.57-.446.35-.598.47-1.362 1.573Z"/><path d="M13.138 20.364c-.294 1.45 0 2.113 0 2.113s.324-.793.664-1.54c.065-.14.115-.252.157-.345.18-.399.207-.46.537-1.103.123-.239.213-.426.292-.59.183-.382.306-.64.644-1.13.398-.58.427-.604.748-.875a21.37 21.37 0 0 0 .545-.477c.308-.28.428-.39 1-.64.725-.317.96-.362 1.6-.362.482 0 .602.094.834.276.077.06.165.13.283.208.475.317.783.784.783.784s.672-1.878.122-2.928c-.551-1.05-1.088-1.27-2.413-1.27-1.326 0-1.638.138-2.89 1.27-1.028.929-1.28 1.598-1.644 2.57-.08.213-.166.441-.266.69-.559 1.38-.702 1.9-.996 3.35Zm-1.659 1.626s.068-1.72-.724-3.592c-.793-1.872-2.445-3.893-2.445-3.893s-2.007-1.962-3.169-2.023c-1.162-.06-1.992.846-1.992.846s-.77.558-.694 1.54c.006.074.01.144.016.209.056.789.067.94.799 2.083.792 1.238 2.142 1.992 2.142 1.992s-.022-.8.332-1.086c.355-.287.966 0 .966 0l2.536 2.082 2.232 1.841Z"/><path d="M15.13 19.155c-.618.993-1.206 2.293-1.206 2.293s1.244-1.607 2.233-2.445c.89-.754 1.009-.797 1.463-.965l.166-.061c.906-.501.906.722.906.722s.636.2 1.566-.722c.16-.223.282-.34.365-.419.149-.141.172-.163.061-.453a1.475 1.475 0 0 0-1.116-.938c-.559-.106-.734-.056-1.48.21-.748.268-.974.44-1.69 1.096-.566.517-.643.647-.953 1.164-.083.14-.184.307-.315.518ZM9.753 9.372c.725 3.154 3.863 5.885 3.863 5.885l-1.298 4.678s-.038-1.069-1.056-2.868-1.652-2.704-3.018-4.327C6.878 11.118 5.8 10.578 5.8 10.578s-.498-1.675-.272-2.654c.226-.979 1.418-2.838 1.418-2.838l.755 1.81s.407-1.5 1.177-2.595c1.188-1.139 1.886-1.48 2.666-1.86.279-.137.569-.279.895-.464 1.388-.49 2.475-.362 2.475-.362l-.966 2.535 1.268.151 1.75 1.118 1.66 2.354.302 2.988-2.203-.876s.4 2.136-1.509 2.656c-2.452.49-4.089-2.815-3.591-3.17.709-.414 1.84-.15 1.84-.15s.595-2.332-1.66-1.992c-.307.27-.52.437-.69.57-.446.35-.598.47-1.362 1.573Z"/><path d="M13.138 20.364c-.294 1.45 0 2.113 0 2.113s.324-.793.664-1.54c.065-.14.115-.252.157-.345.18-.399.207-.46.537-1.103.123-.239.213-.426.292-.59.183-.382.306-.64.644-1.13.398-.58.427-.604.748-.875a21.37 21.37 0 0 0 .545-.477c.308-.28.428-.39 1-.64.725-.317.96-.362 1.6-.362.482 0 .602.094.834.276.077.06.165.13.283.208.475.317.783.784.783.784s.672-1.878.122-2.928c-.551-1.05-1.088-1.27-2.413-1.27-1.326 0-1.638.138-2.89 1.27-1.028.929-1.28 1.598-1.644 2.57-.08.213-.166.441-.266.69-.559 1.38-.702 1.9-.996 3.35Zm-1.659 1.626s.068-1.72-.724-3.592c-.793-1.872-2.445-3.893-2.445-3.893s-2.007-1.962-3.169-2.023c-1.162-.06-1.992.846-1.992.846s-.77.558-.694 1.54c.006.074.01.144.016.209.056.789.067.94.799 2.083.792 1.238 2.142 1.992 2.142 1.992s-.022-.8.332-1.086c.355-.287.966 0 .966 0l2.536 2.082 2.232 1.841Z"/><path d="M15.13 19.155c-.618.993-1.206 2.293-1.206 2.293s1.244-1.607 2.233-2.445c.89-.754 1.009-.797 1.463-.965l.166-.061c.906-.501.906.722.906.722s.636.2 1.566-.722c.16-.223.282-.34.365-.419.149-.141.172-.163.061-.453a1.475 1.475 0 0 0-1.116-.938c-.559-.106-.734-.056-1.48.21-.748.268-.974.44-1.69 1.096-.566.517-.643.647-.953 1.164-.083.14-.184.307-.315.518Z"/></svg>