<svg xmlns="http://www.w3.org/2000/svg" width="36" height="36" viewBox="0 0 14 18"><path fill="#F26C23" d="M6.186 0s.497 2.91.052 3.343c-.445.434-3.964 3.764-3.964 3.764L1.1 5.78 0 9.826s1.695 1.563 2.49 4.902L7 17l6.465-4.933L14 9.04l-1.284-1.275s.235 1.64-.361 1.64c-.597 0-1.679-2.51-2.468-2.51-.789 0-1.485.205-2.977.555-1.192.28-1.65 2.248-1.786 3.03a.502.502 0 0 0 .21.499l1.576 1.368s1.475-.97 1.475-1.624c0-.502-1.238-.472-1.238-1.421 0-.553.492-.773 1.116-.773 1.73 0 2.408 2.042 2.408 2.042-1.266 2.466-3.676 4.023-3.676 4.023s-3.559-2.44-3.559-3.963c0-4.205 4.9-5.32 4.9-5.32l.65-2.152L6.186 0Z"/></svg>