<svg xmlns="http://www.w3.org/2000/svg" width="36" height="36" viewBox="0 0 14 18"><path fill="#67C4B0" d="M14 11.272c0-1.32-1.129-1.825-1.129-1.825s.511-1.015.511-1.798C13.382 4.919 11.34 2 7.912 2c-3.929 0-5.5 4.157-5.5 4.157s-.48-.704-.329-2.396c0 0-2.084 1.761-2.084 5.433 0 2.944 2.055 6.456 5.751 6.456 2.488 0 4.16-2.095 4.16-4.363 0-2.145-1.75-3.415-3.388-3.415-1.07 0-1.955.776-1.955.776.3-1.518 1.934-2.124 1.934-2.124.59-2.797 4.005-2.475 4.005-2.475s-1.427.748-1.919 2.103c0 0 3.433 1.19 3.433 5.046 0 2.746-1.807 4.21-1.807 4.21s1.717-.897 2.872-2.772c.238.305.261.745.261.745s.653-.79.653-2.109"/></svg>